<svg xmlns="http://www.w3.org/2000/svg" width="63.909" height="58.696" viewBox="0 0 63.909 58.696">
  <g id="basket" transform="translate(-49.025 -65.213)">
    <path id="Path_37" data-name="Path 37" d="M80.969,189.032h27.386a4.325,4.325,0,0,1,4.435,3.274,3.681,3.681,0,0,1,.127.922c.016,1.574.032,3.147,0,4.7a4.279,4.279,0,0,1-4.2,4.212c-.525.016-1.065.016-1.589,0-.318-.016-.413.1-.477.4q-1,5.484-2.034,10.951c-.6,3.242-1.192,6.485-1.8,9.711a5.947,5.947,0,0,1-5.8,4.816q-16.427-.1-32.838,0a6.079,6.079,0,0,1-5.944-5.054c-1.192-6.8-2.5-13.606-3.735-20.408-.064-.366-.223-.445-.556-.429a4.518,4.518,0,0,1-3.5-1.1,4.163,4.163,0,0,1-1.415-3.131q-.024-2.336,0-4.673a4.286,4.286,0,0,1,4.053-4.212c.381-.016.779-.016,1.16-.016Q67.6,189.048,80.969,189.032Zm-6.2,24.255v6.342a2.079,2.079,0,1,0,4.148.016v-12.6a2.473,2.473,0,0,0-.175-.954,2.064,2.064,0,0,0-3.974.811C74.754,209.027,74.77,211.157,74.77,213.286Zm-7.391.032v6.342a2.07,2.07,0,1,0,4.133.016V207.04a3.122,3.122,0,0,0-.064-.683,2.071,2.071,0,0,0-4.069.493C67.363,209,67.379,211.157,67.379,213.318Zm18.978.016v-6.246a2.716,2.716,0,0,0-.079-.731A2.053,2.053,0,0,0,84,204.847a2.132,2.132,0,0,0-1.8,2.066v12.874a1.786,1.786,0,0,0,.064.509,2.066,2.066,0,0,0,4.069-.477C86.357,217.657,86.357,215.5,86.357,213.334Zm7.391.048h0c0-2.162.016-4.323,0-6.485a2.074,2.074,0,1,0-4.148.032c0,4.276-.016,8.551.016,12.827a2.411,2.411,0,0,0,.35,1.176,1.985,1.985,0,0,0,2.273.858,2.038,2.038,0,0,0,1.494-2.019C93.763,217.642,93.748,215.512,93.748,213.382Z" transform="translate(0 -104.112)" fill="#8bc53f"/>
    <path id="Path_38" data-name="Path 38" d="M297.828,81.042H294.3c-.715,0-1.43-.016-2.146,0a.558.558,0,0,1-.556-.3c-2.225-3.862-4.482-7.709-6.707-11.571a2.632,2.632,0,0,1,4.546-2.654c2.781,4.752,5.547,9.537,8.329,14.289A.655.655,0,0,0,297.828,81.042Z" transform="translate(-198.073)" fill="#8bc53f"/>
    <path id="Path_39" data-name="Path 39" d="M131.7,81.217c.556-.954,1.065-1.812,1.558-2.686q3.409-5.889,6.85-11.762a2.624,2.624,0,0,1,4.88.763,2.434,2.434,0,0,1-.27,1.764q-3.385,5.841-6.787,11.682a.551.551,0,0,1-.4.238Z" transform="translate(-69.534 -0.16)" fill="#8bc53f"/>
  </g>
</svg>
