<svg xmlns="http://www.w3.org/2000/svg" xmlns:xlink="http://www.w3.org/1999/xlink" width="185.115" height="241.082" viewBox="0 0 185.115 241.082">
  <defs>
    <filter id="Path_1" x="0" y="0" width="185.115" height="241.082" filterUnits="userSpaceOnUse">
      <feOffset dy="3" input="SourceAlpha"/>
      <feGaussianBlur stdDeviation="3" result="blur"/>
      <feFlood flood-opacity="0.161"/>
      <feComposite operator="in" in2="blur"/>
      <feComposite in="SourceGraphic"/>
    </filter>
  </defs>
  <g id="Icon" transform="translate(-89.998 -20.128)">
    <g transform="matrix(1, 0, 0, 1, 90, 20.13)" filter="url(#Path_1)">
      <path id="Path_1-2" data-name="Path 1" d="M181.286,249.159c-4.753-4.4-9.66-8.587-14.158-13.135-19.064-19.269-36.084-40.122-49.373-63.888-8.024-14.362-14.158-29.491-17.224-45.795C92,81.16,119.852,38.38,164.676,28.158c44.108-10.12,89.494,18.655,99.358,62.763,4.191,18.86,1.738,37.055-4.6,54.944-6.7,19.013-16.866,36.084-28.775,52.235a339.908,339.908,0,0,1-43.239,48.248c-1.124,1.022-2.351,1.891-3.527,2.862C183.024,249.159,182.155,249.159,181.286,249.159Z" transform="translate(-90 -20.13)" fill="#8bc53f"/>
    </g>
    <g id="Group_1" data-name="Group 1" transform="translate(119.034 41.447)">
      <circle id="Ellipse_1" data-name="Ellipse 1" cx="63.735" cy="63.735" r="63.735" fill="#fff"/>
      <path id="Path_2" data-name="Path 2" d="M191.23,167.821c.256-.46.46-.971.716-1.431,2.2-3.936,5.469-6.031,9.967-5.929a10.316,10.316,0,0,1,9.507,6.082,1.941,1.941,0,0,0,2.044,1.329c4.6-.051,9.2-.051,13.953-.051V123.407H180.242c-2.913,0-4.8-1.891-4.293-4.293.409-1.891,1.789-2.913,4.089-2.913h50.395c3.169,0,4.4,1.227,4.4,4.4.051,3.322,0,6.7,0,10.222.716.051,1.329.1,1.942.1h12.113a4.654,4.654,0,0,1,4.089,2.044c3.322,4.549,6.8,9,10.12,13.6a6.587,6.587,0,0,1,1.176,3.476c.1,6.9.051,13.851.051,20.751,0,2.913-1.329,4.191-4.242,4.242a3.348,3.348,0,0,1-.716,0c-2.044-.307-3.169.409-4.293,2.3-4.293,7.258-14.924,6.8-18.86-.767a2.487,2.487,0,0,0-2.607-1.584c-6.644.051-13.289.051-19.882,0a2.216,2.216,0,0,0-2.4,1.431,10.835,10.835,0,0,1-19.524-.1,1.893,1.893,0,0,0-2.1-1.329,11.024,11.024,0,0,1-2.249,0c-2.913-.051-4.242-1.278-4.242-4.191q-.077-8.05,0-16.1c0-1.38-.358-2.044-1.84-1.84a9.572,9.572,0,0,1-2.1,0,3.566,3.566,0,0,1-3.476-3.373,3.506,3.506,0,0,1,3.322-3.731c2.658-.1,5.315-.153,7.973,0,2.147.1,3.322,1.687,3.373,4.242.051,5.315,0,10.631,0,15.9v1.789Q190.924,167.745,191.23,167.821Zm43.8-.1c.1.1.256.2.358.307,2.1-4.651,5.367-7.513,10.529-7.564,5.264-.051,8.484,2.964,10.835,7.462a2.2,2.2,0,0,0,.358-1.124c0-5.111.051-10.273,0-15.384a3.027,3.027,0,0,0-.664-1.687c-2.607-3.527-5.213-7.053-7.871-10.478a2.858,2.858,0,0,0-1.942-.971c-2.709-.1-5.418-.051-8.127-.051h-3.475C235.032,148.2,235.032,157.957,235.032,167.719Zm-33.273,7.462a3.733,3.733,0,1,0-.256-7.462,3.711,3.711,0,0,0-3.578,3.833A3.754,3.754,0,0,0,201.759,175.181Zm44.21-7.513A3.732,3.732,0,1,0,249.8,171.3,3.859,3.859,0,0,0,245.969,167.668Z" transform="translate(-156.578 -85.483)" fill="#4daae0"/>
      <path id="Path_3" data-name="Path 3" d="M179.784,142.062H165.831a3.752,3.752,0,0,1-3.731-3.731h0a3.752,3.752,0,0,1,3.731-3.731h13.953a3.752,3.752,0,0,1,3.731,3.731h0A3.719,3.719,0,0,1,179.784,142.062Z" transform="translate(-149.885 -94.478)" fill="#4daae0"/>
      <path id="Path_4" data-name="Path 4" d="M179.784,162.562H165.831a3.752,3.752,0,0,1-3.731-3.731h0a3.752,3.752,0,0,1,3.731-3.731h13.953a3.752,3.752,0,0,1,3.731,3.731h0A3.719,3.719,0,0,1,179.784,162.562Z" transform="translate(-149.885 -104.501)" fill="#4daae0"/>
    </g>
  </g>
</svg>
