<svg xmlns="http://www.w3.org/2000/svg" width="80.255" height="61.526" viewBox="0 0 80.255 61.526">
  <g id="Order_cancel" data-name="Order cancel" transform="translate(-9.199 -68.038)">
    <g id="Group_8" data-name="Group 8" transform="translate(40.213 68.038)">
      <path id="Path_53" data-name="Path 53" d="M191.1,353.187c.631-.273,1.245-.563,1.841-.887Z" transform="translate(-191.1 -303.833)" fill="#fff"/>
      <path id="Path_54" data-name="Path 54" d="M257.346,85.082a1.066,1.066,0,0,0-.6-.989c-.58-.341-1.176-.648-1.756-.972-1.944-1.057-3.887-2.114-5.831-3.188q-3.453-1.893-6.922-3.768c-2.182-1.194-4.365-2.387-6.547-3.563-2.677-1.466-5.337-2.916-8.014-4.382a1.088,1.088,0,0,0-.887-.136,5.408,5.408,0,0,0-.835.409c-1.841.989-3.7,1.995-5.541,3-2.319,1.262-4.655,2.523-6.974,3.785-.614.341-1.228.665-1.841,1.006a22.9,22.9,0,0,1,2.268,1.3c.9-.494,1.807-.989,2.694-1.5a.645.645,0,0,1,.716-.017q3.862,2.148,7.758,4.263c2.319,1.279,4.655,2.558,6.974,3.836,2.54,1.4,5.064,2.779,7.6,4.16,1.722.938,3.427,1.893,5.149,2.83a.428.428,0,0,1,.256.409V99.3a.391.391,0,0,1-.239.392l-4.348,2.4a1.424,1.424,0,0,1-.2.068c0-.136-.017-.239-.017-.358V94.494a1.148,1.148,0,0,0-.648-1.074c-1.944-1.057-3.9-2.131-5.848-3.188-2.1-1.142-4.194-2.285-6.292-3.444-2.626-1.432-5.251-2.881-7.894-4.314-.017-.017-.051-.017-.068-.034a25.117,25.117,0,0,1,2.882,4.16c.665.358,1.347.716,2.012,1.074.546.29,1.057.614,1.6.921.8.443,1.62.887,2.438,1.33q3.939,2.148,7.86,4.3c.119.068.239.136.392.222a1.268,1.268,0,0,1-.2.153c-1.79.989-3.581,1.961-5.388,2.95l-4.5,2.455a1.2,1.2,0,0,0-.665,1.142v21.688c0,1.074,0,2.148-.017,3.24,0,.068-.017.153-.017.29-3.7-2.336-7.366-4.655-11.049-6.974a24.951,24.951,0,0,1-2.131,1.347c.7.443,1.415.887,2.114,1.347q3.683,2.327,7.383,4.655c1.364.853,2.728,1.705,4.092,2.592a1.294,1.294,0,0,0,1.415.051c.87-.477,1.756-.938,2.626-1.415,2.182-1.159,4.348-2.319,6.53-3.478,2.148-1.142,4.314-2.3,6.462-3.444q3.4-1.816,6.786-3.615c2.131-1.142,4.263-2.285,6.411-3.41a1.252,1.252,0,0,0,.75-1.245C257.329,103.5,257.346,94.289,257.346,85.082Zm-18.193.358c-2.506-1.381-5.013-2.745-7.519-4.126-1.79-.989-3.581-1.961-5.371-2.95l-6.6-3.632a2.7,2.7,0,0,1-.273-.188c.392-.2.75-.392,1.091-.58,2.012-1.074,4.024-2.131,6.019-3.222a1,1,0,0,1,1.125-.017c3.188,1.773,6.377,3.5,9.582,5.251q4.092,2.225,8.167,4.467c2.779,1.517,5.558,3.052,8.355,4.569.017,0,.034.017.136.136a.722.722,0,0,0-.2.068c-1.637.887-3.291,1.773-4.928,2.677-.767.409-1.534.835-2.3,1.262a.465.465,0,0,1-.512,0C243.654,87.9,241.4,86.667,239.153,85.44Zm15.7,26.871c-1.739.921-3.478,1.858-5.234,2.779-2.677,1.432-5.354,2.847-8.031,4.28-2.148,1.142-4.3,2.285-6.445,3.444-2.165,1.159-4.331,2.3-6.5,3.461-.136.068-.273.153-.477.273V102.064a.528.528,0,0,1,.29-.529c1.466-.784,2.916-1.586,4.365-2.387,1.637-.887,3.257-1.79,4.893-2.677a.815.815,0,0,1,.2-.085,2.329,2.329,0,0,1,.034.324v7.366a1.08,1.08,0,0,0,1.279,1.159,1.906,1.906,0,0,0,.648-.256c2.234-1.228,4.45-2.472,6.7-3.683a1.3,1.3,0,0,0,.7-1.279V91.561a.447.447,0,0,1,.273-.46c2.063-1.108,4.109-2.234,6.155-3.342.443-.239.87-.477,1.364-.75a1.576,1.576,0,0,1,.017.256v24.62A.38.38,0,0,1,254.856,112.311Z" transform="translate(-208.105 -68.038)" fill="#fff"/>
    </g>
    <g id="Group_9" data-name="Group 9" transform="translate(9.199 75.073)">
      <path id="Path_55" data-name="Path 55" d="M32.865,109.3A23.708,23.708,0,1,1,9.2,133.152,23.66,23.66,0,0,1,32.865,109.3Zm-.034,42.677a18.977,18.977,0,1,0-18.909-19.028A19,19,0,0,0,32.831,151.975Z" transform="translate(-9.199 -109.298)" fill="#fff"/>
    </g>
    <g id="Group_10" data-name="Group 10" transform="translate(24.597 90.424)">
      <path id="Path_56" data-name="Path 56" d="M107.71,205.174c1.705-1.739,3.222-3.325,4.791-4.876,1.142-1.142,2.182-1.245,3.018-.358.818.853.7,1.824-.392,2.933-1.586,1.586-3.188,3.137-4.928,4.859,1.705,1.654,3.291,3.154,4.842,4.689,1.176,1.159,1.33,2.182.512,3.035-.818.87-1.961.7-3.154-.477-.239-.222-.46-.46-.7-.7-1.279-1.3-2.54-2.609-4.109-4.211-1.637,1.739-3.154,3.444-4.774,5.03a2.892,2.892,0,0,1-1.927.784,1.833,1.833,0,0,1-1.347-1.142,2.632,2.632,0,0,1,.512-1.978c1.569-1.722,3.274-3.308,5.166-5.183-1.756-1.688-3.512-3.222-5.064-4.928a2.807,2.807,0,0,1-.563-2.217c.358-1.313,1.91-1.466,3.069-.392.853.8,1.671,1.637,2.489,2.472C105.954,203.367,106.756,204.2,107.71,205.174Z" transform="translate(-99.511 -199.331)" fill="#fff"/>
    </g>
  </g>
</svg>
