<svg xmlns="http://www.w3.org/2000/svg" width="69.3" height="69.334" viewBox="0 0 69.3 69.334">
  <g id="Order_Processing" data-name="Order Processing" transform="translate(-32.5 -32.375)">
    <path id="Path_40" data-name="Path 40" d="M57.4,151.811c4.99,3.157,9.948,6.281,14.954,9.438a1.957,1.957,0,0,0,.016-.271c0-1,.016-2.009.016-3.029V137.67a1.154,1.154,0,0,1,.622-1.068l4.209-2.3c1.674-.925,3.348-1.833,5.038-2.758.048-.032.1-.08.191-.143-.143-.08-.255-.143-.367-.207q-3.683-2.009-7.349-4.017c-.765-.414-1.53-.813-2.28-1.243-.51-.271-.988-.574-1.5-.861-1.243-.67-2.487-1.323-3.714-1.993-2.678-1.467-5.372-2.933-8.051-4.4-.765-.414-1.514-.829-2.28-1.243a1.074,1.074,0,0,1-.032-1.865l3.874-2.1q3.252-1.77,6.52-3.539c1.722-.941,3.443-1.865,5.181-2.806a7.082,7.082,0,0,1,.781-.383.961.961,0,0,1,.829.128c2.5,1.371,4.99,2.726,7.493,4.1,2.041,1.116,4.081,2.232,6.122,3.332,2.152,1.18,4.32,2.359,6.472,3.523,1.817.988,3.635,1.977,5.452,2.981.542.3,1.1.59,1.642.909a1.031,1.031,0,0,1,.558.925v25.842a1.17,1.17,0,0,1-.7,1.164c-2.009,1.052-4,2.136-5.994,3.188q-3.18,1.7-6.345,3.38c-2.009,1.068-4.033,2.152-6.042,3.22-2.041,1.084-4.065,2.168-6.106,3.252-.829.446-1.642.877-2.455,1.323a1.21,1.21,0,0,1-1.323-.048c-1.275-.813-2.551-1.61-3.826-2.423-2.3-1.451-4.607-2.9-6.9-4.352l-6.648-4.209a1.255,1.255,0,0,0-.255-.128c-.064.43-.112.813-.159,1.2-.1.67-.175,1.339-.271,2.009a1.006,1.006,0,0,1-1.052.925c-1.355.016-2.726.016-4.081,0a1.033,1.033,0,0,1-1.068-1c-.143-1.084-.287-2.152-.414-3.236a.406.406,0,0,0-.335-.383,14.269,14.269,0,0,1-3.714-1.53.39.39,0,0,0-.51.032c-.861.67-1.722,1.339-2.583,1.993a1.061,1.061,0,0,1-1.451-.064c-1-.988-1.977-1.977-2.965-2.981a1.028,1.028,0,0,1-.048-1.259l2.1-2.774a.227.227,0,0,0,.032-.319,14.4,14.4,0,0,1-1.594-3.826.352.352,0,0,0-.367-.319l-3.284-.43a.992.992,0,0,1-.941-1.068v-4.145a.983.983,0,0,1,.861-.988c1.1-.143,2.184-.3,3.284-.446a.434.434,0,0,0,.446-.383,14.055,14.055,0,0,1,1.578-3.778.226.226,0,0,0-.032-.319c-.686-.893-1.371-1.8-2.057-2.694a1.082,1.082,0,0,1,.08-1.467c.941-.941,1.881-1.9,2.838-2.838a1.06,1.06,0,0,1,1.5-.08c.877.67,1.77,1.355,2.646,2.025a.289.289,0,0,0,.367.032,14.156,14.156,0,0,1,3.794-1.578.361.361,0,0,0,.319-.351c.128-1.068.287-2.136.414-3.22a1.067,1.067,0,0,1,1.164-1.052h3.938a1.011,1.011,0,0,1,1.1.941c.159,1.1.3,2.184.446,3.284a.383.383,0,0,0,.351.383,13.561,13.561,0,0,1,3.778,1.578.287.287,0,0,0,.351-.016c.861-.67,1.738-1.339,2.614-2.009a1.1,1.1,0,0,1,1.61.112c.877.893,1.77,1.786,2.662,2.662a1.164,1.164,0,0,1,.351,1.148,1.774,1.774,0,0,1-.255.558c-.654.861-1.307,1.722-1.961,2.567a.267.267,0,0,0-.016.351,12.868,12.868,0,0,1,1.53,3.651c.08.3.191.446.526.478,1.052.112,2.1.271,3.157.414a.992.992,0,0,1,.941,1.068v4.1a1.014,1.014,0,0,1-.925,1.036c-1.116.143-2.216.3-3.332.446a.357.357,0,0,0-.335.3,14.829,14.829,0,0,1-1.594,3.858.325.325,0,0,0,.032.319c.654.877,1.307,1.738,1.977,2.6a1.086,1.086,0,0,1-.112,1.642c-.877.877-1.754,1.77-2.646,2.646a1.24,1.24,0,0,1-1.706.112c-.845-.654-1.69-1.291-2.535-1.945a.315.315,0,0,0-.414-.016c-.526.287-1.052.542-1.578.813A.64.64,0,0,1,57.4,151.811Zm17.106,9.629c.191-.112.319-.191.446-.255,2.025-1.084,4.049-2.152,6.074-3.236,2.009-1.068,4.017-2.136,6.026-3.22,2.5-1.339,5.006-2.662,7.509-4,1.626-.861,3.252-1.738,4.894-2.6a.385.385,0,0,0,.239-.4v-23.02c0-.064-.016-.143-.016-.239-.446.255-.861.478-1.275.7-1.913,1.036-3.842,2.088-5.755,3.125a.418.418,0,0,0-.255.43c.016,1.291,0,2.6,0,3.89v4.017a1.217,1.217,0,0,1-.654,1.2c-2.088,1.132-4.177,2.3-6.265,3.443a1.508,1.508,0,0,1-.606.239,1.024,1.024,0,0,1-1.2-1.084v-6.887a2.179,2.179,0,0,0-.032-.3c-.1.032-.143.064-.191.08-1.53.829-3.045,1.674-4.575,2.5-1.355.749-2.71,1.5-4.081,2.232a.46.46,0,0,0-.271.494v22.606A1.465,1.465,0,0,0,74.507,161.44ZM62.9,150.711c.494-.51.988-1,1.467-1.5a.269.269,0,0,0-.032-.239c-.622-.829-1.259-1.658-1.881-2.487a1.132,1.132,0,0,1-.048-1.451c.223-.351.446-.717.638-1.084a12.311,12.311,0,0,0,1.291-3.651,1.031,1.031,0,0,1,.893-.893c1.068-.143,2.12-.287,3.188-.414.191-.016.255-.112.255-.287,0-.59-.016-1.2,0-1.786,0-.175-.064-.239-.239-.271-1.052-.128-2.088-.271-3.141-.414a1.051,1.051,0,0,1-.957-.893,12.986,12.986,0,0,0-1.913-4.719,1.108,1.108,0,0,1,.048-1.514c.622-.813,1.243-1.642,1.881-2.455.1-.112.1-.191-.016-.287-.446-.43-.877-.877-1.307-1.307-.1-.1-.159-.128-.287-.016-.845.654-1.69,1.291-2.535,1.945a1.081,1.081,0,0,1-1.371.032,12.912,12.912,0,0,0-4.655-1.945,1.077,1.077,0,0,1-1.02-1.052c-.143-1.02-.287-2.041-.4-3.061-.032-.207-.1-.255-.287-.255-.558.016-1.1.016-1.658,0-.239,0-.351.064-.383.319-.128,1.02-.271,2.041-.4,3.061a1.041,1.041,0,0,1-.925.972c-.367.064-.717.159-1.084.255a12.606,12.606,0,0,0-3.635,1.69,1.2,1.2,0,0,1-1.419-.048l-1.052-.813c-.462-.351-.925-.717-1.387-1.068-.143-.112-.255-.112-.367.032-.191.207-.4.4-.59.606-.271.271-.542.526-.813.8.08.1.128.159.175.223.638.829,1.275,1.658,1.9,2.5a1.127,1.127,0,0,1-.016,1.4c-.239.367-.462.733-.67,1.116a13.324,13.324,0,0,0-1.275,3.635,1.032,1.032,0,0,1-.925.861c-1.068.143-2.12.287-3.188.414-.175.016-.223.08-.223.239,0,.59.016,1.18,0,1.754,0,.239.08.287.287.319,1.052.128,2.1.271,3.157.415a.95.95,0,0,1,.861.8,13.421,13.421,0,0,0,2.025,4.91,1.21,1.21,0,0,1-.064,1.323c-.638.845-1.275,1.674-1.929,2.519-.112.143-.1.223.032.335.43.414.845.829,1.259,1.259.128.128.207.143.351.032.813-.638,1.642-1.259,2.471-1.9a1.108,1.108,0,0,1,1.4-.064,12.5,12.5,0,0,0,4.783,1.977,1.034,1.034,0,0,1,.877.941c.143,1.052.287,2.1.414,3.172.032.191.1.255.287.239.59-.016,1.2-.016,1.786,0,.159,0,.223-.048.239-.223.128-1.052.271-2.1.414-3.172a1.087,1.087,0,0,1,.957-.988,14.028,14.028,0,0,0,1.61-.414,12.4,12.4,0,0,0,3.157-1.562,1.077,1.077,0,0,1,1.275.032c.223.159.446.335.67.51C61.514,149.643,62.184,150.169,62.9,150.711Zm3.348-37.878c.128.08.191.128.255.175l6.17,3.4c1.674.925,3.348,1.833,5.022,2.758,2.343,1.291,4.687,2.567,7.03,3.858,2.1,1.148,4.209,2.312,6.313,3.459a.434.434,0,0,0,.478,0c.717-.4,1.435-.781,2.152-1.18,1.53-.829,3.077-1.674,4.607-2.5a.9.9,0,0,1,.191-.064.711.711,0,0,1-.128-.128c-2.6-1.419-5.2-2.854-7.812-4.272-2.551-1.387-5.086-2.79-7.636-4.177-2.981-1.626-5.978-3.252-8.959-4.91a.938.938,0,0,0-1.052.016c-1.865,1.02-3.746,2.009-5.628,3.013C66.951,112.466,66.616,112.641,66.249,112.833ZM59.6,116.5c.622.335,1.164.638,1.706.941,1.706.925,3.412,1.865,5.117,2.79,2.455,1.339,4.91,2.694,7.381,4.033,1.961,1.068,3.922,2.136,5.883,3.22,1.817.988,3.651,1.993,5.468,2.981a1.074,1.074,0,0,1,.606,1v6.839c0,.1.016.207.016.335a1.33,1.33,0,0,0,.191-.064l4.065-2.248a.365.365,0,0,0,.223-.367v-7.238a.365.365,0,0,0-.239-.383c-1.61-.877-3.2-1.77-4.814-2.646-2.375-1.307-4.735-2.6-7.11-3.89-2.168-1.2-4.352-2.391-6.52-3.587-2.423-1.323-4.846-2.662-7.254-3.985a.574.574,0,0,0-.67.016c-.861.51-1.738.972-2.614,1.467C60.574,115.957,60.112,116.212,59.6,116.5Z" transform="translate(0 -62.471)" fill="#fff"/>
    <path id="Path_41" data-name="Path 41" d="M44.094,45.531H46.1c.207,0,.271-.064.271-.271-.016-.877-.016-1.77,0-2.646a10.5,10.5,0,0,1,2.009-6.01,9.892,9.892,0,0,1,4.225-3.443,9.773,9.773,0,0,1,7.525-.064,9.206,9.206,0,0,1,3.491,2.375,9.847,9.847,0,0,1,2.519,4.878c.032.175.08.351.112.526a1,1,0,0,1-.638,1.084,1.05,1.05,0,0,1-1.243-.319,5.707,5.707,0,0,0-1.881-1.77,5.017,5.017,0,0,0-4.336-.414A5.525,5.525,0,0,0,54.5,44.271c-.048.319-.016.654-.048.988-.016.207.064.271.271.271,1.259-.016,2.519,0,3.794,0a1.084,1.084,0,0,1,.957.414,1.173,1.173,0,0,1-.048,1.371c-1.164,1.578-2.312,3.172-3.475,4.751-1.1,1.514-2.216,3.029-3.332,4.559-.462.638-.925,1.275-1.371,1.913a1.073,1.073,0,0,1-1.754.016c-1.243-1.722-2.487-3.443-3.746-5.165-.941-1.291-1.881-2.567-2.822-3.858-.542-.749-1.1-1.5-1.642-2.264a1.075,1.075,0,0,1,.925-1.754C42.819,45.531,43.456,45.531,44.094,45.531Zm6.233,10.6c2.072-2.822,4.113-5.628,6.154-8.417-.016-.032-.032-.048-.048-.08H53.372a1.008,1.008,0,0,1-1.052-1.068V44.909A7.734,7.734,0,0,1,55.477,38.5a7.105,7.105,0,0,1,6.7-1.068,2.123,2.123,0,0,0,.3.08c.016-.016.016-.048.032-.064-.159-.175-.319-.367-.494-.542-.112-.128-.239-.239-.367-.367a7.755,7.755,0,0,0-5.293-2.072,6.89,6.89,0,0,0-3.491.877A8.243,8.243,0,0,0,48.494,42.2c-.112,1.419-.032,2.854-.032,4.288A1.035,1.035,0,0,1,47.33,47.6h-2.9c-.08,0-.159.016-.271.016C46.246,50.5,48.271,53.295,50.327,56.132Z" transform="translate(-7.178)" fill="#fff"/>
    <path id="Path_42" data-name="Path 42" d="M103.341,262.34a9.27,9.27,0,1,1,9.326-9.071A9.271,9.271,0,0,1,103.341,262.34Zm.143-2.12a7.151,7.151,0,1,0-7.285-7.285A7.166,7.166,0,0,0,103.484,260.22Z" transform="translate(-51.774 -177.72)" fill="#fff"/>
  </g>
</svg>
