<svg xmlns="http://www.w3.org/2000/svg" width="69.305" height="53.131" viewBox="0 0 69.305 53.131">
  <g id="Order_holded" data-name="Order holded" transform="translate(-9.199 -68.038)">
    <g id="Group_5" data-name="Group 5" transform="translate(35.982 68.038)">
      <path id="Path_43" data-name="Path 43" d="M191.1,353.066c.545-.236,1.075-.486,1.59-.766Z" transform="translate(-191.1 -310.446)" fill="#8bc53f"/>
      <path id="Path_44" data-name="Path 44" d="M251.1,82.756a.92.92,0,0,0-.515-.854c-.5-.294-1.016-.56-1.517-.839-1.678-.913-3.357-1.826-5.036-2.753q-2.982-1.634-5.978-3.254c-1.885-1.031-3.769-2.061-5.654-3.077-2.312-1.266-4.609-2.518-6.92-3.784a.94.94,0,0,0-.766-.118,4.67,4.67,0,0,0-.721.353c-1.59.854-3.2,1.723-4.785,2.591-2,1.09-4.02,2.179-6.022,3.269-.53.294-1.06.574-1.59.869a19.77,19.77,0,0,1,1.958,1.119c.78-.427,1.561-.854,2.326-1.3a.557.557,0,0,1,.618-.015q3.335,1.855,6.7,3.681c2,1.1,4.02,2.209,6.022,3.313,2.194,1.207,4.373,2.4,6.567,3.593,1.487.81,2.959,1.634,4.447,2.444a.369.369,0,0,1,.221.353v6.685a.337.337,0,0,1-.206.339L236.5,97.451a1.226,1.226,0,0,1-.177.059c0-.118-.015-.206-.015-.309V90.884a.992.992,0,0,0-.559-.928c-1.679-.913-3.372-1.84-5.05-2.753-1.811-.986-3.622-1.973-5.433-2.974-2.267-1.237-4.535-2.488-6.817-3.725-.015-.015-.044-.015-.059-.029a21.689,21.689,0,0,1,2.488,3.593c.574.309,1.163.618,1.737.928.471.25.913.53,1.384.8.692.383,1.4.766,2.105,1.148q3.4,1.855,6.788,3.71c.1.059.206.118.339.191a1.1,1.1,0,0,1-.177.133c-1.546.854-3.092,1.693-4.653,2.547l-3.887,2.12a1.04,1.04,0,0,0-.574.986v18.729c0,.928,0,1.855-.015,2.8,0,.059-.015.133-.015.25-3.2-2.017-6.361-4.02-9.541-6.022a21.546,21.546,0,0,1-1.84,1.163c.6.383,1.222.766,1.826,1.163q3.18,2.01,6.375,4.02c1.178.736,2.356,1.472,3.534,2.238a1.118,1.118,0,0,0,1.222.044c.751-.412,1.517-.81,2.267-1.222,1.885-1,3.755-2,5.639-3,1.855-.986,3.725-1.988,5.58-2.974q2.937-1.568,5.86-3.121c1.84-.986,3.681-1.973,5.536-2.945a1.081,1.081,0,0,0,.648-1.075C251.089,98.658,251.1,90.707,251.1,82.756Zm-15.71.309c-2.164-1.193-4.329-2.371-6.493-3.563-1.546-.854-3.092-1.693-4.638-2.547l-5.7-3.136a2.337,2.337,0,0,1-.236-.162c.339-.177.648-.339.942-.5,1.737-.928,3.475-1.84,5.2-2.783a.866.866,0,0,1,.972-.015c2.753,1.531,5.507,3.018,8.275,4.535q3.534,1.921,7.053,3.858c2.4,1.31,4.8,2.636,7.215,3.946.015,0,.029.015.118.118a.624.624,0,0,0-.177.059c-1.413.766-2.842,1.531-4.255,2.312-.663.353-1.325.721-1.988,1.09a.4.4,0,0,1-.442,0C239.281,85.186,237.337,84.126,235.394,83.065Zm13.561,23.2c-1.5.8-3,1.6-4.52,2.4-2.312,1.237-4.623,2.459-6.935,3.7-1.855.986-3.71,1.973-5.566,2.974s-3.74,1.988-5.61,2.989c-.118.059-.236.132-.412.236V97.421a.456.456,0,0,1,.25-.456c1.266-.677,2.518-1.369,3.769-2.061,1.413-.766,2.812-1.546,4.226-2.312a.7.7,0,0,1,.177-.074,2.012,2.012,0,0,1,.029.28v6.361a.933.933,0,0,0,1.1,1,1.646,1.646,0,0,0,.559-.221c1.929-1.06,3.843-2.135,5.786-3.18a1.124,1.124,0,0,0,.6-1.1v-7.3a.386.386,0,0,1,.236-.4c1.782-.957,3.548-1.929,5.315-2.886.383-.206.751-.412,1.178-.648a1.361,1.361,0,0,1,.015.221V105.9A.328.328,0,0,1,248.954,106.27Z" transform="translate(-208.582 -68.038)" fill="#8bc53f"/>
    </g>
    <g id="Group_6" data-name="Group 6" transform="translate(9.199 74.113)">
      <path id="Path_45" data-name="Path 45" d="M29.636,109.3A20.473,20.473,0,1,1,9.2,129.9,20.432,20.432,0,0,1,29.636,109.3Zm-.029,36.854A16.388,16.388,0,1,0,13.278,129.72,16.4,16.4,0,0,0,29.606,146.152Z" transform="translate(-9.199 -109.298)" fill="#8bc53f"/>
      <path id="Path_46" data-name="Path 46" d="M106.3,200.828v-5.948a2.05,2.05,0,1,1,4.093-.015c0,4,.015,8.024,0,12.029a2.051,2.051,0,1,1-4.093-.029Z" transform="translate(-92.003 -180.42)" fill="#8bc53f"/>
      <path id="Path_47" data-name="Path 47" d="M165.829,200.815v5.993a2.049,2.049,0,1,1-4.093.029c-.015-4.034-.015-8.054,0-12.088a2.049,2.049,0,1,1,4.093.015v6.051Z" transform="translate(-139.267 -180.334)" fill="#8bc53f"/>
    </g>
  </g>
</svg>
