<svg xmlns="http://www.w3.org/2000/svg" width="64.389" height="65.462" viewBox="0 0 64.389 65.462">
  <g id="order_complete" data-name="order complete" transform="translate(-48.925 -65.213)">
    <path id="Path_48" data-name="Path 48" d="M113.3,193.26a3.709,3.709,0,0,0-.128-.929,4.358,4.358,0,0,0-4.468-3.3H81.108q-13.475,0-26.919-.032c-.384,0-.785,0-1.169.016a4.319,4.319,0,0,0-4.083,4.244q-.024,2.354,0,4.708a4.2,4.2,0,0,0,1.425,3.155,4.551,4.551,0,0,0,3.523,1.1c.336-.016.5.064.56.432,1.249,6.854,2.562,13.708,3.763,20.562a6.125,6.125,0,0,0,5.989,5.092q11.818-.072,23.636-.032a13.107,13.107,0,0,1,1.97-13.067v-8.151a2.09,2.09,0,1,1,4.18-.032c.016,1.585,0,3.155,0,4.74a13.024,13.024,0,0,1,11.37-.352q.817-4.372,1.633-8.775c.064-.3.16-.416.48-.4.528.016,1.073.016,1.6,0A4.311,4.311,0,0,0,113.3,198C113.328,196.43,113.312,194.845,113.3,193.26ZM71.58,219.906a2.085,2.085,0,1,1-4.164-.016V213.5c0-2.178-.016-4.356,0-6.518a2.087,2.087,0,0,1,4.1-.5,3.145,3.145,0,0,1,.064.689Zm7.462-.032a2.094,2.094,0,1,1-4.18-.016v-6.389c0-2.146-.016-4.292,0-6.437a2.08,2.08,0,0,1,4-.817,2.492,2.492,0,0,1,.176.961Zm7.494-6.357c0,2.178,0,4.356-.016,6.534a2.081,2.081,0,0,1-4.1.48,1.8,1.8,0,0,1-.064-.512V207.047a2.148,2.148,0,0,1,1.81-2.082,2.068,2.068,0,0,1,2.29,1.521,2.736,2.736,0,0,1,.08.737Q86.537,210.37,86.537,213.517Z" transform="translate(0 -103.964)" fill="#fff"/>
    <g id="Group_7" data-name="Group 7" transform="translate(88.523 108.224)">
      <path id="Path_49" data-name="Path 49" d="M307.473,356.251a11.226,11.226,0,1,1,11.161-11.194A11.2,11.2,0,0,1,307.473,356.251Zm-.128-3.315a8.063,8.063,0,1,0-8.007-8.039A8.162,8.162,0,0,0,307.345,352.936Z" transform="translate(-296.199 -333.8)" fill="#fff"/>
      <path id="Path_50" data-name="Path 50" d="M331.035,379.338c1.778-1.826,3.363-3.459,4.948-5.076a4.149,4.149,0,0,1,.673-.625,1.524,1.524,0,0,1,2.242.16,1.469,1.469,0,0,1-.16,2.146c-1.121,1.137-2.258,2.258-3.379,3.395-.993.993-1.97,2-2.979,2.979a1.564,1.564,0,0,1-2.482.048c-.961-.913-1.906-1.858-2.818-2.818a1.6,1.6,0,0,1-.128-2.338,1.483,1.483,0,0,1,2.306.1C329.834,377.881,330.346,378.553,331.035,379.338Z" transform="translate(-321.651 -366.911)" fill="#fff"/>
    </g>
    <path id="Path_51" data-name="Path 51" d="M297.828,81.161h-3.555c-.721,0-1.441-.016-2.162,0a.562.562,0,0,1-.56-.3c-2.242-3.891-4.516-7.767-6.758-11.658a2.652,2.652,0,0,1,4.58-2.674c2.8,4.788,5.589,9.608,8.391,14.4A.66.66,0,0,0,297.828,81.161Z" transform="translate(-197.792 0)" fill="#fff"/>
    <path id="Path_52" data-name="Path 52" d="M131.6,81.336c.56-.961,1.073-1.826,1.569-2.706q3.435-5.933,6.9-11.85a2.643,2.643,0,0,1,4.916.769,2.452,2.452,0,0,1-.272,1.778q-3.411,5.885-6.838,11.77a.555.555,0,0,1-.4.24Z" transform="translate(-69.436 -0.159)" fill="#fff"/>
  </g>
</svg>
