<svg xmlns="http://www.w3.org/2000/svg" width="52" height="52" viewBox="0 0 52 52"><defs><style>.a{fill:#d31145;}.b{fill:#333;}</style></defs><g transform="translate(-0.001)"><g transform="translate(0.001)"><g transform="translate(11.644 11.644)"><circle class="a" cx="14.356" cy="14.356" r="14.356"/></g><path class="b" d="M14.357,131.25a14.356,14.356,0,1,0,14.356,14.356A14.372,14.372,0,0,0,14.357,131.25Zm0,27.024a12.667,12.667,0,1,1,12.667-12.667A12.682,12.682,0,0,1,14.357,158.274Z" transform="translate(-0.001 -107.962)"/><path class="b" d="M54.054,152.534h-.422V150H51.943v2.534h-.422a4.645,4.645,0,1,0,0,9.289h2.533a2.956,2.956,0,0,1,0,5.911H51.521a2.959,2.959,0,0,1-2.956-2.956v-1.267H46.876v1.267a4.651,4.651,0,0,0,4.645,4.645h.422v2.534h1.689v-2.534h.422a4.645,4.645,0,1,0,0-9.289H51.521a2.956,2.956,0,0,1,0-5.911h2.533a2.959,2.959,0,0,1,2.956,2.956v1.267H58.7v-1.267A4.65,4.65,0,0,0,54.054,152.534Z" transform="translate(-38.506 -123.334)"/><path class="b" d="M183.021,5.067h-4.735A2.716,2.716,0,0,0,176.923,0a5.149,5.149,0,0,0-3.206,1.125L171.2,3.141l-2.52-2.017A5.154,5.154,0,0,0,165.472,0a2.722,2.722,0,0,0-2.719,2.719,2.694,2.694,0,0,0,1.357,2.348h-4.735v6.756h2.533V26.179h18.579V11.823h2.533V5.067ZM172.042,6.756v3.378h-1.689V6.756h.752l.093.02.093-.02Zm2.731-4.313a3.454,3.454,0,0,1,2.15-.754,1.03,1.03,0,0,1,.224,2.035l-5.5,1.223Zm-9.3-.754a3.454,3.454,0,0,1,2.15.754l3.13,2.5-5.5-1.223a1.03,1.03,0,0,1,.224-2.035Zm-4.408,8.445V6.756h7.6v3.378h-7.6ZM163.6,24.49V11.823h5.067V24.49Zm6.756,0V11.823h1.689V24.49Zm8.445,0h-5.067V11.823H178.8Zm2.533-14.356h-7.6V6.756h7.6Z" transform="translate(-131.021)"/><path class="b" d="M51.252,37.156l-.366-1.648A20.312,20.312,0,0,0,35.509,50.884l1.649.366A18.617,18.617,0,0,1,51.252,37.156Z" transform="translate(-29.112 -29.111)"/><path class="b" d="M167.734,181.827l.366,1.649A20.314,20.314,0,0,0,183.477,168.1l-1.649-.366A18.615,18.615,0,0,1,167.734,181.827Z" transform="translate(-137.874 -137.873)"/></g></g></svg>