<svg xmlns="http://www.w3.org/2000/svg" width="24.461" height="12.23" viewBox="0 0 24.461 12.23"><defs><style>.a{fill:#c30e2e;}</style></defs><path class="a" d="M6.115,0A5.933,5.933,0,0,0,0,6.115,5.933,5.933,0,0,0,6.115,12.23c2.416,0,4.342-1.712,6.115-3.73,1.773,2.018,3.639,3.73,6.115,3.73a5.933,5.933,0,0,0,6.115-6.115A5.933,5.933,0,0,0,18.346,0C15.869,0,14,1.712,12.23,3.73,10.457,1.712,8.531,0,6.115,0Zm0,3.058c1.284,0,2.691,1.437,4.1,3.058C8.806,7.736,7.4,9.173,6.115,9.173A2.871,2.871,0,0,1,3.058,6.115,2.871,2.871,0,0,1,6.115,3.058Zm12.23,0A2.871,2.871,0,0,1,21.4,6.115a2.871,2.871,0,0,1-3.058,3.058c-1.315,0-2.721-1.437-4.1-3.058C15.655,4.495,17.031,3.058,18.346,3.058Z"/></svg>